<?xml version="1.0" standalone="no"?>
<!DOCTYPE svg PUBLIC "-//W3C//DTD SVG 20010904//EN"
 "http://www.w3.org/TR/2001/REC-SVG-20010904/DTD/svg10.dtd">
<svg version="1.0" xmlns="http://www.w3.org/2000/svg"
 width="200.000000pt" height="200.000000pt" viewBox="0 0 200.000000 200.000000"
 preserveAspectRatio="xMidYMid meet">
<metadata>
Created by potrace 1.11, written by Peter Selinger 2001-2013
</metadata>
<g transform="translate(0.000000,200.000000) scale(0.100000,-0.100000)"
fill="#000000" stroke="none">
<path d="M610 1748 c-4 -260 -31 -335 -195 -525 l-36 -41 63 20 c183 58 393 9
527 -122 109 -107 160 -214 168 -360 15 -236 -128 -452 -357 -538 -60 -23 -60
-23 66 -26 141 -4 292 37 399 108 196 131 301 348 322 666 l6 95 -52 -62
c-103 -123 -209 -173 -307 -147 -20 5 -19 9 22 70 55 83 83 175 100 329 28
267 91 383 257 470 70 36 61 42 -68 44 -130 2 -254 -22 -351 -69 -97 -47 -147
-93 -242 -221 -39 -53 -81 -104 -94 -113 l-23 -16 -6 89 c-11 150 -50 230
-153 314 -25 21 -46 37 -46 35z"/>
<path d="M545 1148 c-135 -18 -242 -83 -319 -193 -54 -77 -66 -105 -80 -189
-49 -287 177 -553 464 -545 128 4 250 58 332 148 48 53 102 149 114 202 50
234 -64 459 -279 546 -33 13 -81 27 -106 29 -25 3 -50 6 -56 8 -5 1 -37 -1
-70 -6z m160 -158 c107 -35 194 -135 211 -245 13 -86 7 -131 -28 -201 -79
-160 -264 -222 -425 -143 -118 57 -182 164 -178 294 2 85 27 146 85 209 84 91
215 125 335 86z"/>
<path d="M515 944 c-51 -18 -108 -68 -103 -90 2 -10 27 -32 57 -49 l54 -32 32
18 c30 18 31 21 30 85 -1 78 -11 88 -70 68z"/>
<path d="M653 943 c-9 -3 -13 -27 -13 -74 0 -67 1 -70 31 -88 l31 -19 55 32
c30 17 58 37 60 44 14 35 -120 120 -164 105z"/>
<path d="M352 788 c-29 -36 -25 -174 5 -185 14 -5 122 44 124 57 12 69 7 77
-81 122 -41 21 -35 21 -48 6z"/>
<path d="M779 756 c-50 -30 -54 -35 -54 -71 0 -35 4 -41 45 -66 82 -50 103
-37 103 66 0 61 -9 91 -27 98 -7 3 -38 -9 -67 -27z"/>
<path d="M565 766 c-30 -13 -55 -51 -55 -84 0 -30 43 -72 80 -78 100 -16 135
132 39 165 -18 6 -32 11 -33 11 -1 -1 -15 -7 -31 -14z m81 -73 c2 -11 -6 -29
-17 -39 -19 -17 -23 -17 -47 -3 -24 13 -28 22 -23 59 0 6 11 15 24 19 27 11
59 -7 63 -36z"/>
<path d="M448 563 c-68 -40 -68 -55 1 -101 46 -32 120 -53 122 -36 6 52 4 122
-2 135 -5 9 -21 21 -36 26 -24 8 -37 4 -85 -24z"/>
<path d="M658 581 c-21 -17 -24 -27 -23 -80 0 -33 5 -65 11 -71 25 -25 164 50
164 89 0 12 -18 31 -50 50 -59 36 -69 37 -102 12z"/>
</g>
</svg>
